<?xml version="1.0" encoding="utf-8"?>
<!-- Generator: Adobe Illustrator 23.0.0, SVG Export Plug-In . SVG Version: 6.00 Build 0)  -->
<svg version="1.1" id="Layer_1" xmlns="http://www.w3.org/2000/svg" xmlns:xlink="http://www.w3.org/1999/xlink" x="0px" y="0px"
	 viewBox="0 0 712 892" style="enable-background:new 0 0 712 892;" xml:space="preserve">
<g>
	<g>
		<path d="M355.7,416.29c-0.75-1.58-2.35-2.67-4.21-2.67c-17.84,0-32.35,14.51-32.35,32.35c0,17.84,14.51,32.35,32.35,32.35
			c1.86,0,3.46-1.1,4.21-2.67c14.55-2.06,25.8-14.56,25.8-29.68C381.49,430.85,370.25,418.35,355.7,416.29z M355.33,470.97
			c-0.85-1.22-2.25-2.02-3.85-2.02c-12.67,0-22.98-10.31-22.98-22.98c0-12.67,10.31-22.98,22.98-22.98c1.59,0,3-0.8,3.85-2.02
			c12.14,1.86,21.48,12.35,21.48,25C376.81,458.62,367.47,469.11,355.33,470.97z M301.24,465.63c-3.69,2.17-7.91,3.32-12.22,3.32
			c-13.3,0-24.13-10.82-24.13-24.12c0-1.6-0.8-3.01-2.03-3.85c1.88-12.77,12.87-22.61,26.15-22.61c5.44,0,10.67,1.64,15.12,4.74
			c1.07,0.74,2.52,0.48,3.26-0.58c0.74-1.06,0.48-2.52-0.58-3.26c-5.24-3.65-11.39-5.58-17.8-5.58c-15.75,0-28.77,11.76-30.83,26.94
			c-1.57,0.76-2.66,2.35-2.66,4.21c0,18.47,15.02,33.49,33.49,33.49c5.97,0,11.84-1.59,17.18-4.73c2.22-1.32,2.85-4.13,1.54-6.35
			C306.42,465.01,303.47,464.33,301.24,465.63z M222.1,416.31c-1.1-2.34-3.89-3.35-6.23-2.25c-2.34,1.1-3.35,3.89-2.25,6.23
			l0.36,0.77l-25.3,53.99c-0.55,1.17-0.05,2.57,1.13,3.11c0.32,0.15,0.66,0.22,0.99,0.22c0.88,0,1.73-0.5,2.12-1.35l8.35-17.82
			h30.62l7.7,16.4c0.8,1.7,2.49,2.7,4.24,2.7c0.67,0,1.34-0.14,1.99-0.45c2.34-1.1,3.35-3.89,2.25-6.23L222.1,416.31z
			 M203.46,454.54l13.1-27.96l13.12,27.96H203.46z M518.86,413.62c-2.59,0-4.68,2.1-4.68,4.68v46.18l-37.47-44.27v-1.91
			c0-2.59-2.1-4.68-4.68-4.68c-2.59,0-4.68,2.1-4.68,4.68v55.33c0,2.59,2.1,4.68,4.68,4.68c2.59,0,4.68-2.1,4.68-4.68v-46.18
			l37.47,44.27v1.91c0,2.59,2.1,4.68,4.68,4.68s4.68-2.1,4.68-4.68V418.3C523.54,415.71,521.45,413.62,518.86,413.62z
			 M449.76,434.54c0-11.51-9.36-20.89-20.88-20.92h-2.23c-1.73,0-3.22,0.95-4.03,2.34h-15.45c-0.81-1.39-2.31-2.34-4.03-2.34
			c-2.59,0-4.68,2.1-4.68,4.68v55.33c0,2.59,2.1,4.68,4.68,4.68c2.59,0,4.68-2.1,4.68-4.68v-52.99h14.8
			c0.81,1.39,2.31,2.34,4.03,2.34h2.22c6.35,0.02,11.53,5.2,11.53,11.55c0,6.37-5.13,11.56-11.44,11.56h-2.3
			c-2.59,0-4.68,2.1-4.68,4.68c0,2.59,2.1,4.68,4.68,4.68h1.21l15.48,21.93c0.45,0.65,1.18,0.99,1.91,0.99
			c0.47,0,0.94-0.14,1.35-0.43c1.06-0.75,1.31-2.21,0.56-3.26L433.26,455C442.67,453,449.76,444.59,449.76,434.54z"/>
	</g>
</g>
</svg>
